<?xml version="1.0" standalone="no"?>
<!DOCTYPE svg PUBLIC "-//W3C//DTD SVG 20010904//EN"
 "http://www.w3.org/TR/2001/REC-SVG-20010904/DTD/svg10.dtd">
<svg version="1.0" xmlns="http://www.w3.org/2000/svg"
 width="1024.000000pt" height="1024.000000pt" viewBox="0 0 1024.000000 1024.000000"
 preserveAspectRatio="xMidYMid meet">
<metadata>
Created by potrace 1.11, written by Peter Selinger 2001-2013
</metadata>
<g transform="translate(0.000000,1024.000000) scale(0.100000,-0.100000)"
fill="#000000" stroke="none">
<path d="M8944 7728 c-3 -4 -11 -5 -19 -1 -9 3 -63 -18 -120 -47 -127 -63
-168 -104 -161 -162 3 -20 9 -46 15 -56 12 -22 75 -72 90 -72 6 0 11 -4 11
-10 0 -5 15 -10 33 -10 47 0 159 -40 232 -83 42 -24 145 -108 145 -118 0 -5 8
-9 17 -9 9 0 13 -3 10 -6 -3 -4 9 -25 28 -47 20 -23 43 -58 52 -79 9 -21 20
-38 23 -38 3 0 11 -21 18 -47 7 -27 24 -86 37 -133 13 -47 31 -134 40 -195 9
-60 21 -128 27 -150 6 -22 12 -51 14 -65 11 -104 15 -157 19 -240 9 -195 17
-376 20 -420 10 -150 15 -261 20 -385 3 -77 8 -162 11 -190 2 -27 5 -59 5 -70
3 -78 22 -241 29 -256 6 -10 6 -20 2 -23 -7 -4 11 -108 35 -203 5 -21 30 -52
65 -79 27 -21 131 -7 197 27 34 17 61 36 61 42 0 6 3 8 6 4 7 -7 79 28 89 42
3 6 7 27 9 48 2 21 9 50 16 63 20 37 28 416 9 404 -11 -6 -12 -5 -3 7 6 8 10
25 8 39 -1 14 -5 92 -8 174 -4 93 -11 156 -19 165 -10 12 -9 13 2 6 11 -6 13
-4 7 11 -4 10 -9 59 -12 109 -2 49 -9 128 -15 175 -15 114 -16 129 -24 272 -3
67 -9 126 -12 131 -3 6 -7 37 -8 71 -2 34 -8 104 -14 156 -6 52 -13 118 -16
145 -3 28 -10 70 -15 95 -6 25 -12 65 -14 90 -2 25 -5 45 -6 45 -2 0 -4 11 -5
25 -1 14 -8 39 -15 55 -7 17 -13 33 -12 37 5 20 -21 107 -30 102 -5 -3 -8 0
-7 7 2 13 -18 61 -40 99 -5 8 -24 46 -42 84 -18 37 -39 70 -46 73 -7 3 -10 9
-7 14 3 5 -2 9 -10 9 -9 0 -16 6 -16 14 0 8 -11 24 -25 37 -13 13 -25 27 -25
31 0 11 -58 68 -69 68 -5 0 -12 9 -16 19 -3 11 -26 30 -51 42 -25 12 -48 27
-51 35 -7 18 -151 86 -165 78 -7 -4 -8 -3 -4 4 4 7 3 12 -3 12 -5 0 -12 -6
-14 -12 -4 -10 -8 -10 -15 1 -6 8 -15 10 -23 6 -8 -5 -11 -4 -6 1 10 11 -97
33 -176 37 -32 1 -61 -1 -63 -5z"/>
<path d="M2267 7724 c-3 -3 -69 -6 -146 -7 -112 0 -138 -3 -134 -14 6 -14 -12
-18 -21 -4 -3 4 -45 -11 -93 -35 -96 -47 -148 -96 -133 -124 5 -9 7 -28 6 -42
-4 -33 43 -102 72 -106 12 -2 22 -7 22 -10 0 -4 18 -7 40 -7 22 0 40 -2 40 -6
0 -4 50 -6 110 -5 62 1 110 -2 110 -7 0 -5 7 -3 17 4 9 8 18 10 20 4 2 -6 36
-9 85 -7 114 5 133 5 211 -1 42 -3 67 -1 67 5 0 6 8 7 18 3 22 -9 346 -12 370
-4 9 3 27 3 39 -2 12 -5 25 -4 27 0 3 5 25 5 48 1 24 -5 47 -6 52 -3 11 7 203
6 215 -2 5 -3 13 -1 16 5 5 8 11 8 20 0 8 -6 16 -7 19 -2 6 10 84 8 94 -2 3
-3 11 -1 19 5 10 9 13 8 13 -1 0 -7 7 -10 15 -6 8 3 22 9 32 13 9 3 14 2 11
-3 -7 -11 162 -11 180 0 7 4 17 4 24 0 13 -9 261 -10 275 -1 4 2 32 1 61 -3
29 -3 55 -3 58 1 2 5 11 6 19 2 23 -8 344 -9 338 -1 -2 5 8 3 23 -2 15 -6 34
-8 43 -5 19 6 90 7 246 5 61 -1 115 -1 120 0 13 2 132 1 223 -3 39 -1 72 1 72
5 0 5 7 8 16 8 8 0 13 -4 10 -8 -7 -11 73 -8 98 3 13 6 21 5 24 -3 3 -9 9 -9
23 -1 11 5 24 7 30 3 16 -10 309 -11 309 -1 0 5 5 5 11 1 13 -7 309 -12 309
-4 0 3 44 4 97 2 186 -6 668 -7 720 -2 28 3 50 3 47 -1 -5 -8 200 -2 227 6 10
4 28 1 40 -5 15 -8 19 -9 15 -1 -9 14 7 14 39 -1 21 -9 31 -9 46 0 24 15 32
15 23 1 -4 -7 0 -9 13 -5 19 6 37 6 255 5 59 0 112 2 117 5 5 4 12 3 15 -2 3
-5 27 -6 54 -2 27 3 60 3 73 0 32 -9 214 -4 229 5 7 4 15 3 19 -2 7 -12 151
-10 170 1 6 4 16 4 21 1 6 -3 13 0 16 9 5 13 62 46 88 50 6 1 11 5 11 9 0 5
17 16 38 26 21 10 45 30 52 45 19 35 12 114 -11 131 -10 6 -14 17 -11 22 13
20 -30 43 -89 48 -92 9 -129 9 -141 2 -7 -4 -14 -3 -18 2 -3 6 -15 7 -27 2
-12 -4 -40 -4 -61 1 -27 6 -44 5 -53 -3 -11 -9 -14 -8 -14 7 0 11 -3 15 -8 8
-4 -7 -50 -10 -132 -8 -69 2 -129 4 -135 4 -5 0 -86 -1 -180 -3 -93 -2 -174
-1 -178 1 -13 6 -195 7 -191 1 1 -3 -10 -6 -26 -6 -17 0 -30 4 -30 8 0 5 -6 6
-12 4 -31 -11 -123 -13 -135 -3 -8 6 -13 6 -13 1 0 -6 -32 -8 -77 -6 -154 7
-213 8 -213 3 0 -7 -66 -4 -79 5 -6 3 -11 1 -11 -5 0 -6 -4 -9 -8 -6 -13 8
-83 9 -138 1 -32 -4 -54 -3 -58 3 -4 6 -18 7 -34 3 -32 -8 -174 -6 -197 3 -9
3 -14 2 -11 -3 3 -5 -22 -7 -57 -5 -34 2 -98 4 -142 3 -44 0 -101 0 -127 1
-64 0 -56 0 -203 -1 -71 -1 -157 -1 -190 0 -33 0 -82 0 -110 -1 -27 0 -72 0
-100 1 -67 4 -77 2 -71 -8 3 -4 -6 -6 -19 -3 -14 2 -25 8 -25 13 0 5 -12 3
-26 -3 -20 -9 -27 -9 -34 1 -6 11 -8 11 -12 1 -3 -10 -9 -10 -22 -3 -10 6 -35
7 -57 3 -22 -4 -42 -4 -45 1 -2 4 -11 6 -19 3 -23 -9 -105 -10 -105 -1 0 4 -9
3 -19 -3 -13 -6 -22 -7 -26 0 -4 6 -15 6 -33 -1 -18 -7 -28 -7 -30 0 -2 6 -8
8 -14 5 -14 -9 -158 -13 -153 -4 5 8 -112 3 -125 -5 -6 -4 -10 -1 -10 5 0 6
-5 8 -12 4 -17 -11 -138 -13 -164 -3 -14 5 -26 4 -29 -1 -3 -5 -18 -5 -35 0
-17 5 -30 6 -30 2 0 -8 -94 -6 -117 2 -9 4 -20 1 -25 -6 -8 -10 -11 -10 -15 0
-2 6 -9 9 -15 6 -9 -6 -44 -6 -199 -1 -19 0 -39 -2 -45 -4 -5 -3 -20 -4 -34
-2 -14 2 -32 3 -40 3 -151 0 -201 1 -232 3 -20 1 -34 -1 -32 -5 7 -11 -4 -10
-27 2 -12 7 -19 7 -19 1 0 -5 -10 -8 -22 -5 -25 4 -102 5 -185 1 -28 -1 -49 1
-47 5 5 8 -42 3 -68 -7 -10 -4 -18 -3 -18 1 0 9 -112 9 -135 0 -7 -2 -30 -1
-51 4 -23 5 -45 5 -56 -1 -12 -6 -25 -6 -38 1 -15 8 -20 8 -20 -2 0 -8 -3 -9
-11 -1 -7 7 -24 8 -51 1 -29 -6 -45 -5 -56 4 -12 10 -14 10 -8 1 4 -7 2 -13
-3 -13 -6 0 -11 5 -11 11 0 6 -9 8 -22 3 -32 -10 -262 -12 -269 -2 -3 5 -8 5
-12 2z"/>
<path d="M1418 7656 c-59 -11 -110 -24 -114 -28 -4 -5 -16 -8 -26 -8 -43 0
-321 -130 -372 -175 -16 -14 -33 -25 -37 -25 -7 0 -21 -12 -91 -76 -22 -20
-62 -67 -98 -114 -19 -25 -37 -47 -40 -50 -10 -10 -31 -45 -36 -62 -4 -10 -9
-18 -13 -18 -6 0 -63 -109 -82 -155 -19 -48 -69 -222 -69 -240 0 -11 -9 -74
-21 -140 -11 -66 -24 -156 -29 -200 -5 -44 -15 -123 -23 -175 -16 -101 -24
-170 -32 -260 -3 -30 -7 -75 -10 -100 -3 -25 -7 -81 -10 -125 -3 -44 -8 -107
-10 -140 -7 -84 -6 -291 0 -345 14 -107 39 -160 77 -160 10 0 18 -5 18 -11 0
-5 4 -8 8 -5 4 3 28 7 52 10 24 3 46 9 49 13 3 5 30 20 58 33 29 14 53 30 53
37 0 7 6 10 13 7 32 -12 120 100 123 156 1 14 4 35 7 47 4 15 0 26 -11 34 -16
10 -16 10 0 5 11 -3 17 1 16 12 -1 55 12 263 16 271 4 5 2 13 -4 16 -6 4 -8
16 -4 28 11 34 15 67 14 125 0 29 3 51 8 49 4 -3 7 36 6 86 0 51 2 97 5 102 5
10 12 85 11 138 0 15 3 27 7 27 5 0 8 26 7 58 0 31 3 77 8 102 4 25 10 65 12
90 3 25 12 70 21 100 8 30 18 66 20 80 9 54 17 86 25 105 24 59 63 137 85 169
14 20 25 43 25 51 0 8 6 18 13 22 7 4 30 33 52 63 21 30 52 70 69 88 l31 34
-37 -22 c-21 -12 -38 -19 -38 -16 0 11 54 55 66 56 6 0 17 7 25 16 7 8 74 45
148 81 177 86 230 121 231 152 0 13 2 22 5 19 3 -3 23 11 44 31 33 30 37 38
27 53 -21 29 -100 95 -121 100 -11 3 -68 -4 -127 -16z"/>
<path d="M7580 6939 c-210 -17 -247 -20 -285 -24 -43 -5 -117 -11 -235 -20
-97 -7 -160 -23 -154 -40 3 -8 -7 -15 -28 -19 -18 -3 -40 -8 -48 -10 -8 -3
-21 -5 -27 -5 -7 -1 -13 -7 -13 -15 0 -8 -11 -23 -25 -34 -14 -11 -25 -29 -25
-40 0 -12 -5 -24 -10 -27 -6 -4 -8 -35 -6 -78 15 -234 19 -424 30 -1567 3
-272 8 -517 10 -545 14 -129 18 -155 27 -160 5 -4 9 -15 9 -26 0 -17 22 -25
53 -20 5 1 6 -3 2 -9 -3 -5 -3 -11 2 -11 4 -1 21 -3 37 -5 16 -2 35 -5 42 -8
7 -3 16 -2 18 3 3 4 22 7 43 6 21 -2 55 2 76 7 21 5 116 9 210 9 95 0 210 4
257 9 47 5 114 12 150 15 36 3 84 8 107 10 40 3 93 29 93 45 0 4 9 10 20 13
11 3 20 14 20 24 0 10 5 24 11 30 14 14 14 72 -1 120 -11 35 -56 86 -83 96 -9
3 -9 8 -1 18 6 8 14 22 17 32 7 17 3 18 -40 13 -27 -4 -113 -9 -193 -11 -176
-4 -312 -14 -363 -25 -21 -4 -40 -4 -43 1 -6 11 -19 320 -23 555 l-1 92 -51 0
c-27 0 -52 2 -55 5 -3 3 -7 26 -8 51 l-3 46 59 -2 c40 -2 62 2 67 11 5 7 11 9
14 4 4 -5 34 -11 68 -12 35 -1 66 -4 70 -7 4 -2 11 0 14 6 4 6 14 8 24 5 11
-3 26 4 41 20 13 14 29 25 35 25 7 0 20 9 30 20 10 12 25 18 32 16 7 -3 19 5
28 17 8 12 18 21 20 20 12 -7 26 -2 20 6 -3 6 3 15 14 20 10 6 21 17 24 25 7
17 -3 57 -12 52 -3 -2 -6 16 -6 40 0 29 -4 44 -12 44 -8 0 -19 12 -25 26 -17
37 -54 52 -108 43 -25 -3 -47 -2 -48 2 -2 5 -7 7 -12 4 -9 -5 -96 -14 -179
-17 -47 -2 -55 0 -57 17 -2 11 -6 133 -10 270 -3 138 -7 268 -8 290 l-2 40
-57 -3 -57 -4 0 45 0 44 48 7 c26 3 130 9 232 12 101 3 188 8 192 10 4 3 24 7
45 9 68 8 127 27 161 52 17 13 32 20 32 16 0 -4 4 -2 8 4 4 7 17 14 28 15 64
10 108 105 79 174 -8 19 -14 38 -13 42 4 13 -47 58 -90 80 -45 23 -52 24 -202
11z m-140 -1473 c0 -3 -4 -8 -10 -11 -5 -3 -10 -1 -10 4 0 6 5 11 10 11 6 0
10 -2 10 -4z"/>
<path d="M8565 6920 c-60 -7 -171 -46 -204 -71 -13 -11 -29 -19 -35 -19 -21 0
-125 -55 -126 -66 0 -7 -10 -14 -23 -18 -20 -5 -134 -133 -130 -146 1 -3 -2
-9 -7 -15 -4 -5 -11 -26 -15 -45 -4 -19 -11 -39 -15 -45 -4 -5 -8 -17 -8 -25
-1 -8 -4 -46 -7 -85 -10 -117 11 -237 58 -334 23 -45 52 -93 64 -105 12 -11
23 -24 23 -28 0 -3 56 -63 125 -132 69 -70 125 -131 125 -136 0 -6 6 -10 14
-10 8 0 17 -11 20 -25 4 -14 12 -25 19 -25 6 -1 26 -18 42 -40 17 -21 40 -41
52 -44 13 -4 25 -17 29 -31 3 -14 10 -22 15 -19 5 3 9 0 9 -6 0 -12 25 -43 85
-104 16 -17 28 -37 27 -43 -2 -7 2 -13 8 -13 6 0 15 -11 20 -25 5 -14 14 -25
20 -25 5 0 10 -6 10 -14 0 -8 5 -16 10 -18 6 -2 12 -13 13 -26 0 -12 6 -22 13
-22 6 0 19 -21 28 -47 10 -27 21 -56 27 -65 11 -21 4 -224 -9 -241 -4 -7 -15
-32 -22 -56 -16 -49 -95 -135 -116 -127 -7 3 -16 1 -19 -4 -13 -21 -24 -9 -15
16 10 24 9 26 -12 20 -35 -9 -188 32 -226 61 -18 14 -37 36 -42 49 -5 13 -17
24 -26 24 -11 0 -15 6 -11 20 3 12 -4 30 -19 47 -13 15 -24 31 -24 36 0 9 -46
29 -72 32 -10 1 -37 -11 -60 -27 -24 -15 -49 -28 -56 -28 -7 0 -33 -11 -57
-26 -45 -26 -96 -101 -76 -113 6 -4 7 -12 1 -21 -25 -39 5 -166 52 -215 15
-17 28 -35 28 -41 0 -18 94 -99 130 -113 170 -64 182 -66 335 -65 101 0 152 5
185 17 25 9 57 18 71 21 15 2 35 9 45 14 11 5 64 31 119 58 104 51 200 127
191 151 -3 8 -2 11 4 8 5 -3 14 5 21 17 7 12 18 29 26 36 7 7 13 20 13 28 0 8
4 14 8 14 12 0 42 68 46 100 1 14 4 30 7 35 6 13 5 293 -2 363 -3 29 -11 57
-18 62 -8 4 -10 13 -7 19 4 6 1 23 -7 38 -8 16 -19 39 -25 53 -35 84 -64 140
-72 140 -6 0 -10 6 -10 14 0 23 -73 135 -92 142 -10 3 -18 11 -18 17 0 7 -8
20 -17 28 -22 19 -95 106 -106 125 -5 8 -13 12 -18 8 -5 -3 -8 -2 -7 3 5 16
-110 153 -129 153 -5 0 -17 14 -26 30 -11 17 -27 30 -38 30 -11 0 -17 5 -14
10 9 14 -52 73 -66 64 -8 -4 -9 -3 -5 5 5 7 -13 39 -43 79 -28 37 -51 69 -50
72 0 3 -12 30 -27 60 -20 39 -28 70 -28 106 l0 52 -35 -4 c-18 -3 -38 -7 -42
-10 -19 -11 -8 13 14 32 88 76 141 89 349 82 44 -1 120 21 112 33 -3 5 4 9 16
9 23 0 68 25 87 48 7 8 25 16 40 18 33 3 55 31 47 57 -4 12 -2 17 4 13 35 -21
16 88 -20 112 -39 28 -71 43 -123 59 -56 17 -255 31 -330 23z"/>
<path d="M1475 6869 c-22 -14 -54 -29 -70 -33 -40 -10 -85 -44 -96 -73 -5 -14
-12 -61 -15 -106 -10 -130 -10 -137 -16 -143 -4 -3 -3 -18 2 -34 4 -15 5 -32
1 -36 -5 -5 -5 -38 -2 -74 3 -36 4 -110 1 -165 -6 -106 -4 -354 5 -860 3 -170
7 -440 9 -600 3 -394 7 -439 36 -503 14 -30 30 -50 37 -48 6 3 23 -4 37 -15
32 -26 68 -17 167 40 39 23 73 41 76 41 3 0 25 16 48 35 52 42 63 79 70 250 3
66 8 135 11 153 4 20 2 32 -5 32 -6 0 -11 7 -11 15 0 8 5 15 11 15 5 0 8 4 5
8 -2 4 -7 71 -11 147 -3 77 -8 172 -10 210 -6 82 -17 483 -15 505 1 8 3 204 4
435 1 231 6 486 10 567 8 140 7 148 -14 191 -22 43 -52 62 -97 60 -7 0 -13 2
-13 6 0 3 -26 6 -57 6 -44 0 -66 -6 -98 -26z"/>
<path d="M3374 6885 c-4 -8 -13 -15 -20 -15 -8 0 -17 -7 -20 -15 -4 -9 -19
-15 -41 -15 -26 0 -42 -8 -65 -32 -41 -44 -49 -70 -53 -158 -7 -180 -5 -220
10 -220 5 0 4 -4 -3 -8 -10 -7 -11 -19 -2 -56 7 -31 7 -53 0 -65 -5 -10 -7
-21 -4 -24 3 -3 7 -67 10 -144 2 -76 6 -150 8 -166 2 -15 -1 -30 -6 -33 -5 -3
-6 -61 -3 -137 4 -73 7 -154 9 -182 1 -27 5 -56 9 -62 5 -8 3 -13 -4 -13 -7 0
-9 -10 -5 -27 7 -32 15 -128 31 -373 1 -25 4 -45 5 -45 6 0 5 -47 -2 -51 -4
-3 -3 -14 2 -25 7 -13 7 -19 1 -19 -6 0 -13 11 -17 25 -3 14 -9 25 -13 25 -4
0 -29 42 -55 94 -27 52 -54 97 -61 100 -16 6 -26 72 -29 202 -3 97 -22 164
-46 164 -5 0 -12 11 -16 24 -3 14 -14 32 -25 42 -10 9 -19 23 -19 30 0 6 -11
22 -25 35 -13 13 -25 28 -25 33 0 5 -30 55 -67 110 -38 56 -78 122 -90 147
-12 25 -29 52 -38 59 -8 7 -15 18 -15 25 0 7 -19 45 -42 85 -24 39 -53 90 -66
113 -13 23 -34 53 -47 67 -12 14 -29 42 -36 63 -7 20 -17 37 -21 37 -4 0 -8 5
-8 10 0 6 -4 16 -10 23 -36 45 -110 149 -110 156 0 4 -14 19 -32 32 -17 13
-37 30 -44 37 -17 16 -117 18 -122 3 -2 -6 -9 -11 -17 -11 -7 0 -18 -7 -25
-15 -7 -8 -28 -17 -47 -21 -43 -8 -113 -72 -113 -103 0 -12 -7 -33 -16 -46
-17 -25 -26 -75 -14 -75 9 0 10 -38 13 -352 1 -148 5 -268 9 -268 4 0 3 -11
-2 -24 -5 -13 -6 -26 -3 -30 3 -3 7 -56 9 -118 2 -62 4 -113 5 -113 1 0 11
-165 12 -212 1 -24 5 -43 8 -43 3 0 7 -21 8 -46 0 -26 4 -51 8 -57 3 -5 7 -37
9 -71 9 -153 14 -215 22 -264 5 -31 5 -55 0 -58 -5 -3 -5 -11 2 -18 5 -7 10
-24 9 -37 0 -13 3 -62 6 -109 3 -47 8 -110 10 -140 2 -30 4 -55 5 -55 0 0 3
-20 5 -45 9 -94 14 -117 34 -153 11 -20 20 -39 18 -41 -1 -2 7 -15 17 -29 18
-24 24 -25 80 -21 34 3 82 14 108 24 26 11 54 20 62 20 9 0 16 7 16 16 0 8 5
12 10 9 6 -3 10 -2 10 4 0 6 18 15 40 21 22 6 45 20 51 32 23 43 16 364 -17
708 -4 36 -8 81 -10 100 -1 19 -6 64 -10 100 -5 36 -7 69 -5 74 4 14 -20 56
-55 98 -46 56 -84 139 -82 178 1 14 -2 93 -5 175 l-7 150 20 -33 c11 -18 20
-35 20 -39 0 -3 11 -21 25 -39 14 -18 25 -38 25 -44 0 -6 11 -26 25 -44 14
-18 25 -38 25 -44 0 -16 78 -145 107 -176 12 -14 23 -28 23 -31 0 -3 18 -30
40 -59 22 -29 40 -58 40 -64 0 -7 5 -12 10 -12 6 0 15 -10 21 -22 18 -40 38
-72 51 -83 7 -5 19 -21 26 -35 6 -14 26 -47 42 -75 16 -27 34 -60 39 -72 6
-11 15 -24 21 -28 5 -3 17 -21 25 -38 23 -50 91 -148 107 -155 5 -2 8 -8 8
-13 0 -10 67 -116 88 -137 6 -7 12 -18 12 -24 0 -6 7 -18 15 -27 18 -19 110
-159 140 -213 42 -77 100 -148 120 -148 12 0 26 -5 33 -12 9 -9 12 -9 12 0 0
7 11 12 24 12 36 0 108 28 128 50 10 11 31 22 46 26 47 10 52 13 46 29 -4 10
0 15 15 15 26 0 42 55 36 125 -7 75 -16 250 -18 337 -1 43 -5 78 -8 78 -3 0
-7 53 -8 118 -1 64 -4 135 -7 157 -2 22 -6 135 -9 250 -4 191 -10 415 -21 785
-11 399 -22 569 -37 588 -5 6 -7 12 -3 12 9 0 -76 73 -102 88 -12 7 -47 15
-77 17 -44 4 -57 2 -61 -10z m-324 -1359 c0 -3 -4 -8 -10 -11 -5 -3 -10 -1
-10 4 0 6 5 11 10 11 6 0 10 -2 10 -4z"/>
<path d="M5718 6887 c-25 -24 -68 -47 -87 -47 -11 0 -27 -7 -35 -16 -9 -8 -16
-12 -16 -7 0 15 -60 -60 -65 -81 -7 -31 -24 -173 -29 -236 -3 -30 -7 -89 -11
-130 -3 -41 -8 -102 -11 -135 -2 -33 -7 -166 -10 -295 -3 -129 -7 -284 -8
-345 -2 -60 -7 -231 -11 -380 -6 -257 -21 -629 -29 -705 -2 -19 0 -43 5 -52 5
-10 5 -19 0 -22 -11 -7 3 -69 24 -107 8 -14 12 -29 9 -32 -8 -8 35 -29 45 -22
5 3 17 -2 25 -11 9 -9 23 -13 32 -10 8 3 25 1 36 -5 17 -9 23 -8 30 6 7 11 17
15 33 11 18 -5 33 3 61 29 21 20 43 34 50 31 23 -9 62 18 88 61 14 24 26 47
27 51 0 4 4 12 9 17 21 26 30 142 36 475 7 415 8 399 -20 421 -21 16 -24 28
-24 76 1 55 18 93 43 93 8 0 12 76 13 248 2 209 6 337 12 337 4 0 10 214 11
389 1 199 -4 242 -38 312 -9 16 -29 36 -45 43 -23 10 -27 16 -17 22 16 10 3
13 -38 10 -11 -1 -24 3 -28 8 -9 15 -51 14 -67 -2z"/>
<path d="M4006 6791 c-4 -6 -4 -11 0 -11 4 0 -1 -7 -12 -15 -10 -8 -35 -15
-54 -15 -40 0 -65 -13 -56 -28 3 -6 -4 -14 -16 -17 -35 -11 -58 -35 -58 -61 0
-13 -4 -25 -9 -29 -6 -3 -8 -47 -5 -103 7 -132 13 -426 18 -857 3 -198 7 -385
11 -415 3 -30 8 -100 10 -155 3 -55 7 -136 10 -180 3 -44 7 -107 9 -140 2 -33
6 -67 10 -76 4 -10 3 -20 -2 -23 -6 -3 -6 -24 -1 -53 5 -27 12 -65 14 -87 3
-21 8 -42 11 -47 3 -5 1 -9 -3 -9 -5 0 -5 -33 -1 -72 5 -40 9 -84 8 -96 0 -13
7 -33 15 -45 8 -12 15 -30 15 -40 0 -10 4 -15 10 -12 6 3 16 3 23 -2 6 -4 47
-9 90 -10 63 -1 82 -5 93 -20 8 -11 13 -13 14 -6 0 9 13 12 43 9 25 -2 54 3
72 12 17 9 39 16 50 17 11 1 28 5 37 9 9 4 22 4 29 0 7 -4 9 -3 6 3 -4 6 12
10 40 10 27 0 49 5 51 11 2 7 11 12 20 12 9 0 26 9 38 21 12 11 28 22 35 23
33 7 70 27 65 35 -8 12 20 34 33 27 5 -4 14 2 20 11 6 11 11 13 11 5 0 -7 12
-2 28 13 15 15 44 35 65 46 21 11 40 26 44 34 3 8 11 15 19 15 7 0 24 11 38
25 14 14 27 25 30 25 7 0 97 92 138 141 20 24 62 70 92 102 31 31 56 66 56 76
0 10 7 21 15 25 8 3 15 12 15 21 0 8 4 15 10 15 28 0 38 60 45 260 12 395 14
590 4 590 -5 0 -9 14 -9 30 0 17 -4 30 -10 30 -5 0 -12 16 -16 35 -3 19 -10
35 -14 35 -9 0 -26 58 -22 73 2 5 -2 6 -8 2 -5 -3 -10 3 -10 14 0 12 -4 21
-10 21 -5 0 -10 11 -10 24 0 13 -7 27 -15 30 -9 3 -23 22 -31 41 -8 19 -19 35
-24 35 -6 0 -10 5 -10 10 0 6 -8 19 -17 29 -10 11 -27 32 -38 46 -11 15 -35
43 -52 62 -18 19 -33 39 -33 44 0 5 -4 9 -10 9 -5 0 -23 14 -40 30 -17 17 -35
30 -40 30 -5 0 -12 9 -15 20 -3 11 -12 20 -18 20 -7 0 -28 15 -47 33 -47 44
-126 98 -134 90 -3 -4 -6 -1 -6 6 0 7 -13 17 -30 22 -16 6 -30 15 -30 20 0 5
-6 9 -14 9 -8 0 -24 11 -37 25 -13 13 -27 25 -32 25 -4 0 -26 14 -49 30 -22
17 -44 30 -48 30 -4 0 -25 8 -46 17 -22 9 -47 18 -56 20 -9 1 -36 10 -60 19
-54 20 -242 31 -252 15z m188 -420 c59 -32 141 -88 202 -138 23 -18 45 -33 50
-33 5 0 43 -38 84 -85 41 -47 78 -85 82 -85 4 0 8 -5 8 -11 0 -6 15 -32 33
-58 19 -25 37 -53 40 -61 4 -8 20 -37 37 -65 91 -150 153 -306 167 -418 4 -34
6 -66 4 -72 -2 -5 -5 -21 -6 -35 -10 -118 -57 -232 -137 -332 -21 -26 -38 -51
-38 -57 0 -6 -4 -11 -9 -11 -5 0 -19 -21 -31 -46 -21 -46 -113 -144 -184 -199
-46 -35 -146 -95 -158 -95 -5 0 -7 18 -5 40 2 23 -1 41 -7 43 -8 3 -7 11 2 26
8 14 9 21 1 21 -6 0 -9 17 -6 45 2 25 0 48 -5 51 -5 4 -7 17 -4 29 3 14 1 25
-5 27 -9 3 -9 10 1 27 7 14 8 26 3 30 -6 3 -11 58 -12 121 -1 63 -4 131 -7
150 -2 19 -6 108 -9 198 -2 90 -7 167 -10 172 -3 5 -8 63 -10 128 -6 160 -14
296 -22 362 -3 30 -7 69 -7 85 -1 28 -29 64 -51 65 -27 1 -58 39 -60 73 -2 20
1 39 5 42 5 3 6 15 1 27 -7 21 -3 68 6 68 3 0 28 -13 57 -29z"/>
<path d="M6352 5848 c-31 -16 -65 -31 -75 -33 -29 -6 -84 -44 -92 -63 -3 -9
-8 -39 -11 -66 -4 -56 -7 -61 -37 -62 -43 -2 -105 -25 -112 -42 -4 -9 -9 -38
-11 -63 -4 -43 -2 -48 36 -83 22 -20 50 -36 63 -36 37 0 45 -12 50 -73 2 -32
6 -59 8 -60 45 -28 95 -47 140 -52 55 -7 56 -6 82 28 20 26 33 35 51 33 14 -2
25 0 24 3 -2 18 4 22 16 12 12 -10 18 -2 36 46 12 32 24 70 27 86 5 25 9 27
35 21 l30 -6 -5 113 c-3 63 -6 120 -6 127 -1 7 -14 12 -30 12 -28 0 -30 2 -37
58 -3 31 -10 64 -15 72 -37 65 -83 73 -167 28z"/>
<path d="M588 4946 c-16 -8 -28 -12 -28 -9 0 3 -7 0 -15 -7 -8 -7 -15 -10 -15
-6 0 3 -17 -3 -37 -13 -21 -11 -54 -27 -75 -36 -22 -10 -38 -26 -42 -40 -7
-26 -34 -248 -42 -340 -3 -33 -7 -71 -9 -85 -7 -41 -19 -248 -19 -342 -1 -49
-3 -88 -6 -88 -3 0 -6 -50 -8 -112 -2 -62 -5 -115 -8 -119 -2 -4 0 -19 6 -33
5 -14 5 -28 1 -31 -5 -2 -10 -99 -10 -214 -2 -161 1 -210 11 -213 8 -3 15 -40
21 -109 9 -115 13 -154 16 -154 3 0 10 -32 14 -65 2 -14 9 -35 15 -47 7 -12
12 -31 12 -42 0 -12 5 -21 11 -21 8 0 8 -5 -1 -15 -7 -9 -8 -15 -2 -15 11 0
43 -46 46 -66 1 -7 6 -17 10 -21 4 -4 14 -21 22 -38 36 -74 52 -92 154 -175
140 -112 284 -177 420 -189 170 -14 438 -3 466 19 7 7 19 10 26 8 11 -4 47 13
208 99 14 7 21 13 15 14 -5 0 0 4 13 10 14 5 20 13 16 21 -5 8 -2 9 9 5 12 -4
14 -2 10 11 -3 9 -3 14 1 11 14 -13 66 48 105 125 23 43 41 85 41 92 0 8 5 14
10 14 6 0 15 12 21 28 6 15 21 50 34 77 34 71 71 156 101 228 14 34 34 81 45
104 10 24 35 82 55 130 20 49 41 94 47 101 14 17 -7 32 -45 32 -33 0 -35 18
-10 69 l17 35 225 2 c570 7 872 13 877 18 3 3 13 2 22 -3 9 -5 63 -7 121 -5
58 2 121 3 140 3 19 -1 467 -1 995 -1 528 1 983 1 1010 1 28 0 507 0 1065 0
558 1 1033 1 1054 1 22 0 43 -4 46 -10 6 -10 80 -20 184 -23 68 -3 70 -3 89
-37 11 -19 20 -39 21 -45 1 -5 12 -32 25 -60 12 -27 25 -62 28 -77 3 -16 10
-25 16 -21 6 4 8 0 5 -8 -3 -8 1 -31 10 -50 8 -18 16 -36 17 -39 4 -12 26 -67
34 -85 5 -11 15 -36 22 -55 11 -30 34 -86 69 -165 5 -11 23 -51 40 -90 18 -38
36 -79 41 -90 60 -132 141 -253 206 -306 25 -20 116 -64 127 -61 4 2 14 -2 21
-8 36 -30 518 -34 566 -5 5 4 17 8 26 10 42 10 112 39 173 72 98 54 210 124
210 131 0 4 20 20 45 37 24 16 41 33 39 37 -3 4 0 8 6 8 14 0 60 45 60 59 0 5
6 16 14 23 7 8 27 44 44 80 17 36 35 69 41 73 6 3 8 11 5 17 -4 6 -2 13 4 17
6 4 13 22 15 42 2 19 6 39 9 44 3 6 9 26 13 45 4 19 10 39 13 44 3 5 6 23 8
40 1 17 4 49 7 71 3 22 9 102 12 177 3 76 10 152 16 170 13 47 12 398 -2 398
-6 0 -9 6 -6 13 2 6 0 20 -5 30 -6 11 -5 17 3 17 7 0 9 9 4 28 -8 27 -15 103
-16 156 0 16 -4 37 -10 47 -5 10 -5 19 0 21 5 2 6 23 2 48 -6 35 -17 56 -54
93 -26 27 -51 46 -57 42 -5 -3 -10 -2 -10 3 0 11 -49 10 -67 -1 -7 -5 -13 -5
-13 -1 0 4 -12 -4 -28 -19 -19 -19 -34 -25 -50 -20 -13 3 -22 1 -22 -6 0 -6
-6 -11 -13 -11 -35 0 -92 -109 -101 -195 -3 -28 -8 -99 -11 -159 -3 -61 -9
-112 -14 -115 -4 -4 -11 -62 -15 -131 -9 -180 -19 -286 -32 -350 -2 -8 -6 -44
-9 -80 -3 -36 -7 -72 -10 -80 -2 -8 -7 -46 -10 -85 -3 -38 -8 -77 -10 -85 -2
-8 -6 -33 -10 -55 -13 -94 -70 -196 -127 -226 -31 -17 -130 -28 -150 -17 -12
5 -18 5 -18 -1 0 -11 -193 -8 -273 4 -57 9 -115 60 -148 130 -12 25 -25 48
-30 51 -5 3 -9 11 -9 19 0 8 -5 26 -12 42 -6 15 -12 30 -13 33 -3 10 -18 45
-47 115 -42 98 -98 268 -92 277 3 4 -8 8 -23 8 -16 0 -34 5 -41 12 -9 9 -12 9
-12 -1 0 -8 -10 -11 -27 -9 -24 2 -31 11 -45 53 l-17 50 27 11 c18 8 35 8 56
1 54 -17 118 -21 127 -6 6 10 13 11 31 1 23 -12 65 -11 86 2 7 4 12 1 12 -6 0
-10 2 -10 8 -1 4 6 34 13 67 14 57 2 85 15 85 38 0 11 69 36 77 27 6 -6 33 19
33 32 0 5 11 14 25 20 18 8 25 20 25 39 1 16 7 46 15 68 13 36 13 41 -2 52
-13 10 -14 15 -3 28 10 13 9 15 -9 15 -12 0 -21 6 -21 15 0 8 -7 15 -15 15 -8
0 -15 4 -15 10 0 5 -7 6 -17 3 -11 -4 -14 -3 -9 5 9 15 1 15 -25 2 -10 -6 -19
-7 -19 -2 0 6 -902 17 -1120 13 -8 0 -287 0 -620 0 -350 -1 -619 -5 -638 -10
-20 -6 -30 -6 -27 0 5 7 -85 15 -117 10 -4 0 -299 -2 -655 -2 -359 -1 -656 -6
-665 -11 -10 -5 -18 -5 -18 0 0 5 -44 8 -97 8 -54 -1 -108 2 -121 6 -13 4 -21
5 -19 0 3 -4 -115 -6 -261 -6 -147 1 -275 -3 -284 -8 -12 -5 -18 -5 -18 2 0 5
-7 10 -15 10 -8 0 -15 -4 -15 -8 0 -4 -9 -8 -20 -9 -11 -1 -20 4 -20 10 0 7
-4 6 -10 -3 -5 -8 -10 -10 -10 -4 0 16 -38 25 -47 12 -3 -7 -1 -8 5 -4 7 4 12
2 12 -3 0 -6 -7 -11 -15 -11 -8 0 -15 4 -15 9 0 4 -72 8 -161 7 -88 -1 -163 2
-166 6 -2 5 -9 5 -16 1 -6 -4 -55 -7 -109 -6 -54 0 -98 -3 -98 -8 0 -4 -8 -6
-17 -4 -10 2 -18 4 -18 6 0 1 -37 3 -82 4 -46 1 -83 -1 -83 -5 0 -3 -11 -7
-26 -8 -14 -1 -23 2 -19 8 8 13 -11 13 -36 0 -12 -7 -19 -7 -19 -1 0 5 -22 9
-50 9 -27 -1 -50 -5 -50 -9 0 -4 -14 -3 -30 3 -23 8 -34 7 -46 -3 -11 -9 -18
-10 -22 -2 -8 13 -142 13 -142 1 0 -5 -5 -8 -11 -8 -5 0 -7 5 -4 10 3 6 1 10
-4 10 -6 0 -11 -5 -11 -11 0 -13 -42 -8 -52 6 -5 6 -8 5 -8 -2 0 -7 -9 -13
-20 -13 -11 0 -20 5 -20 10 0 6 -11 10 -25 10 -14 0 -25 -4 -25 -8 0 -4 -9 -8
-20 -9 -11 -1 -18 2 -15 8 4 5 1 9 -4 9 -6 0 -11 -4 -11 -10 0 -5 -12 -10 -26
-10 -21 0 -25 4 -20 18 5 14 3 13 -9 -3 -14 -17 -17 -18 -25 -5 -5 8 -10 11
-10 6 0 -5 -6 -3 -14 3 -9 7 -17 8 -20 2 -3 -5 -15 -7 -26 -4 -13 3 -20 0 -20
-8 0 -11 -3 -11 -11 1 -8 11 -12 12 -16 3 -6 -16 -33 -17 -33 -2 0 11 -36 9
-75 -6 -16 -6 -17 -5 -5 4 12 9 0 11 -47 10 -38 -2 -63 -7 -63 -13 0 -6 -5 -4
-10 4 -9 13 -10 13 -10 0 0 -13 -1 -13 -10 0 -6 10 -10 11 -10 3 0 -8 -13 -13
-30 -13 -17 0 -30 5 -30 13 0 8 -4 7 -10 -3 -9 -13 -10 -13 -10 0 0 12 -2 12
-9 1 -7 -10 -13 -11 -30 -2 -14 8 -21 8 -21 1 0 -5 -7 -10 -15 -10 -8 0 -15 6
-15 13 0 8 -4 7 -10 -3 -5 -8 -10 -10 -10 -5 0 6 -23 11 -50 13 -28 2 -50 -1
-50 -6 0 -5 -18 -9 -40 -9 -22 0 -40 4 -40 8 0 5 -7 9 -16 9 -8 0 -12 -5 -8
-11 5 -8 1 -8 -14 0 -27 15 -42 14 -42 -2 0 -7 -9 -13 -21 -14 -15 -1 -19 2
-15 15 5 13 2 12 -10 -3 -9 -11 -18 -15 -20 -9 -3 6 -34 10 -83 8 -66 -2 -85
-6 -118 -28 -22 -15 -50 -28 -62 -31 -47 -9 -141 -99 -123 -117 13 -13 4 -38
-14 -38 -19 0 -18 -24 2 -41 9 -7 20 -23 25 -36 5 -15 14 -21 24 -17 8 3 15 2
15 -3 0 -25 158 -71 178 -51 5 5 20 5 35 -1 14 -5 64 -9 110 -7 47 2 90 0 95
-3 6 -4 0 -35 -15 -81 -14 -41 -26 -82 -28 -90 -8 -59 -50 -177 -129 -370 -70
-171 -89 -206 -139 -252 -42 -40 -89 -52 -81 -20 5 15 -6 17 -127 18 -93 0
-134 4 -137 12 -2 7 -16 12 -30 12 -15 0 -39 6 -54 14 -15 8 -39 17 -55 20
-43 10 -116 84 -141 142 -11 28 -24 75 -27 104 -4 30 -8 57 -10 61 -2 3 -7 39
-10 80 -3 41 -8 81 -10 89 -2 8 -7 40 -10 70 -3 30 -10 80 -15 110 -5 30 -12
95 -16 145 -4 53 -12 94 -20 100 -16 13 -27 313 -28 780 -1 187 -5 351 -10
365 -26 79 -78 107 -138 76z"/>
<path d="M4645 4340 c-3 -5 -1 -10 4 -10 6 0 11 5 11 10 0 6 -2 10 -4 10 -3 0
-8 -4 -11 -10z"/>
<path d="M1935 3950 c-3 -5 -1 -10 4 -10 6 0 11 5 11 10 0 6 -2 10 -4 10 -3 0
-8 -4 -11 -10z"/>
</g>
</svg>
